<?xml version="1.0" encoding="UTF-8"?>
<svg width="180" height="60" viewBox="0 0 180 60" fill="none" xmlns="http://www.w3.org/2000/svg">
  <!-- Logo Background -->
  <rect width="60" height="60" rx="8" fill="#FF0A36"/>
  
  <!-- "A" and "F" in the logo -->
  <path d="M19.5 42V18H25L33 32L41 18H46.5V42H41.5V26L34.5 38H31.5L24.5 26V42H19.5Z" fill="white"/>
  
  <!-- Company Name "AppForge" -->
  <path d="M66 26.536H70.456C70.488 25.656 70.728 24.904 71.176 24.28C71.624 23.656 72.232 23.176 73 22.84C73.784 22.488 74.688 22.312 75.712 22.312C77.536 22.312 78.92 22.784 79.864 23.728C80.808 24.656 81.28 25.856 81.28 27.328V35.608C81.28 36.408 81.336 37.144 81.448 37.816C81.576 38.472 81.76 39 82 39.4H77.528C77.368 39.032 77.248 38.584 77.168 38.056C77.088 37.528 77.048 37.016 77.048 36.52C76.44 37.448 75.696 38.152 74.816 38.632C73.936 39.096 72.984 39.328 71.96 39.328C70.936 39.328 70.032 39.128 69.248 38.728C68.464 38.312 67.848 37.736 67.4 37C66.968 36.248 66.752 35.384 66.752 34.408C66.752 33.304 66.984 32.384 67.448 31.648C67.928 30.912 68.576 30.336 69.392 29.92C70.208 29.504 71.136 29.2 72.176 29.008C73.216 28.8 74.336 28.696 75.536 28.696H76.976V28.024C76.976 27.144 76.728 26.464 76.232 25.984C75.752 25.504 75.064 25.264 74.168 25.264C73.448 25.264 72.872 25.4 72.44 25.672C72.008 25.944 71.688 26.28 71.48 26.68C71.288 27.08 71.192 27.488 71.192 27.904H66.736C66.768 26.624 67.088 25.56 67.696 24.712C68.32 23.848 69.16 23.2 70.216 22.768C71.288 22.32 72.536 22.096 73.96 22.096C75.224 22.096 76.368 22.28 77.392 22.648C78.432 23.016 79.304 23.536 80.008 24.208C80.712 24.864 81.232 25.664 81.568 26.608C81.92 27.536 82.096 28.568 82.096 29.704V35.896C82.096 36.744 82.136 37.52 82.216 38.224C82.312 38.912 82.456 39.496 82.648 39.976H78.392C78.184 39.48 78.032 38.904 77.936 38.248C77.856 37.576 77.816 36.904 77.816 36.232C77.192 37.352 76.4 38.24 75.44 38.896C74.48 39.536 73.232 39.856 71.696 39.856C70.528 39.856 69.48 39.624 68.552 39.16C67.624 38.68 66.888 38.024 66.344 37.192C65.816 36.344 65.552 35.344 65.552 34.192C65.552 32.88 65.832 31.8 66.392 30.952C66.968 30.088 67.76 29.416 68.768 28.936C69.776 28.456 70.944 28.112 72.272 27.904C73.616 27.68 75.064 27.568 76.616 27.568V27.352C76.616 26.632 76.368 26.08 75.872 25.696C75.392 25.296 74.76 25.096 73.976 25.096C73.4 25.096 72.896 25.2 72.464 25.408C72.048 25.616 71.72 25.904 71.48 26.272C71.256 26.64 71.144 27.064 71.144 27.544H66.688C66.704 26.808 66.88 26.128 67.216 25.504C67.552 24.864 68.024 24.32 68.632 23.872C69.256 23.408 69.984 23.056 70.816 22.816C71.664 22.56 72.592 22.432 73.6 22.432C74.624 22.432 75.576 22.584 76.456 22.888C77.352 23.176 78.128 23.608 78.784 24.184C79.456 24.76 79.976 25.464 80.344 26.296C80.728 27.112 80.92 28.056 80.92 29.128V36.04C80.92 37.064 81.04 37.888 81.28 38.512V38.992H77.048C76.84 38.592 76.688 38.112 76.592 37.552C76.512 36.976 76.472 36.384 76.472 35.776C75.864 36.848 75.08 37.696 74.12 38.32C73.176 38.928 71.968 39.232 70.496 39.232C69.456 39.232 68.52 39.024 67.688 38.608C66.872 38.176 66.224 37.592 65.744 36.856C65.28 36.104 65.048 35.24 65.048 34.264C65.048 33.272 65.24 32.384 65.624 31.6C66.024 30.816 66.616 30.16 67.4 29.632C68.184 29.088 69.144 28.672 70.28 28.384C71.432 28.08 72.736 27.928 74.192 27.928H76.712V26.824C76.712 26.104 76.488 25.544 76.04 25.144C75.608 24.728 74.968 24.52 74.12 24.52C73.48 24.52 72.952 24.64 72.536 24.88C72.136 25.104 71.832 25.4 71.624 25.768C71.432 26.136 71.336 26.536 71.336 26.968H66ZM73.336 36.712C74.2 36.712 74.928 36.52 75.52 36.136C76.128 35.752 76.576 35.224 76.864 34.552C77.168 33.864 77.32 33.096 77.32 32.248V30.472H74.864C74.112 30.472 73.44 30.536 72.848 30.664C72.272 30.776 71.784 30.96 71.384 31.216C70.984 31.456 70.68 31.776 70.472 32.176C70.264 32.56 70.16 33.032 70.16 33.592C70.16 34.344 70.408 34.952 70.904 35.416C71.416 35.864 72.168 36.088 73.16 36.088C73.16 36.088 73.224 36.088 73.352 36.088C73.48 36.072 73.528 36.064 73.496 36.064L73.336 36.712Z" fill="#1A1A1A"/>
  <path d="M90.4844 39.4H86.2124V22.528H90.1484V25C90.5324 24.192 91.1164 23.56 91.9004 23.104C92.6844 22.632 93.5644 22.396 94.5404 22.396C95.2924 22.396 95.9964 22.52 96.6524 22.768C97.3084 23.016 97.8844 23.4 98.3804 23.92C98.8924 24.424 99.2924 25.072 99.5804 25.864C99.8844 26.64 100.036 27.56 100.036 28.624V39.4H95.7524V29.152C95.7524 28.144 95.5244 27.376 95.0684 26.848C94.6284 26.304 93.9644 26.032 93.0764 26.032C92.6444 26.032 92.2524 26.112 91.9004 26.272C91.5484 26.416 91.2444 26.632 90.9884 26.92C90.7484 27.208 90.5564 27.568 90.4124 28C90.2684 28.416 90.1964 28.896 90.1964 29.44V39.4H85.9124V22.528H90.4844V39.4Z" fill="#1A1A1A"/>
  <path d="M113.93 39.4H109.67V22.528H113.93V39.4ZM113.666 20.176H109.934V16.576H113.666V20.176Z" fill="#1A1A1A"/>
  <path d="M124.762 39.4H120.49V22.528H124.762V39.4ZM124.498 20.176H120.766V16.576H124.498V20.176Z" fill="#1A1A1A"/>
  <path d="M135.121 39.4H130.849V22.528H134.785V25C135.169 24.192 135.753 23.56 136.537 23.104C137.321 22.632 138.201 22.396 139.177 22.396C139.929 22.396 140.633 22.52 141.289 22.768C141.945 23.016 142.521 23.4 143.017 23.92C143.529 24.424 143.929 25.072 144.217 25.864C144.521 26.64 144.673 27.56 144.673 28.624V39.4H140.389V29.152C140.389 28.144 140.161 27.376 139.705 26.848C139.265 26.304 138.601 26.032 137.713 26.032C137.281 26.032 136.889 26.112 136.537 26.272C136.185 26.416 135.881 26.632 135.625 26.92C135.385 27.208 135.193 27.568 135.049 28C134.905 28.416 134.833 28.896 134.833 29.44V39.4H130.549V22.528H135.121V39.4Z" fill="#1A1A1A"/>
  <path d="M159.653 31.576H149.381C149.445 32.296 149.613 32.904 149.885 33.4C150.157 33.896 150.509 34.288 150.941 34.576C151.373 34.848 151.861 35.04 152.405 35.152C152.965 35.248 153.549 35.296 154.157 35.296C155.165 35.296 156.061 35.152 156.845 34.864C157.645 34.576 158.333 34.152 158.909 33.592L159.869 36.376C159.213 36.936 158.381 37.384 157.373 37.72C156.381 38.056 155.269 38.224 154.037 38.224C152.901 38.224 151.853 38.056 150.893 37.72C149.933 37.384 149.101 36.888 148.397 36.232C147.693 35.576 147.141 34.768 146.741 33.808C146.341 32.832 146.141 31.712 146.141 30.448C146.141 29.296 146.317 28.232 146.669 27.256C147.037 26.28 147.549 25.44 148.205 24.736C148.861 24.016 149.645 23.456 150.557 23.056C151.485 22.64 152.517 22.432 153.653 22.432C154.645 22.432 155.549 22.592 156.365 22.912C157.197 23.232 157.917 23.696 158.525 24.304C159.133 24.896 159.605 25.632 159.941 26.512C160.293 27.376 160.469 28.376 160.469 29.512C160.469 29.8 160.461 30.08 160.445 30.352C160.429 30.608 160.405 30.864 160.373 31.12C160.357 31.224 160.341 31.344 160.325 31.48C160.309 31.6 160.293 31.624 160.277 31.552H149.693C149.725 32.336 149.877 33.008 150.149 33.568C150.421 34.112 150.773 34.56 151.205 34.912C151.637 35.248 152.117 35.488 152.645 35.632C153.189 35.776 153.741 35.848 154.301 35.848C154.765 35.848 155.213 35.8 155.645 35.704C156.093 35.608 156.509 35.48 156.893 35.32C157.293 35.144 157.653 34.944 157.973 34.72C158.309 34.48 158.605 34.232 158.861 33.976L159.941 36.952C159.285 37.464 158.437 37.888 157.397 38.224C156.373 38.544 155.269 38.704 154.085 38.704C152.997 38.704 151.981 38.544 151.037 38.224C150.093 37.888 149.269 37.4 148.565 36.76C147.861 36.12 147.301 35.336 146.885 34.408C146.469 33.464 146.261 32.376 146.261 31.144C146.261 29.96 146.429 28.888 146.765 27.928C147.117 26.952 147.613 26.12 148.253 25.432C148.893 24.728 149.661 24.184 150.557 23.8C151.453 23.4 152.453 23.2 153.557 23.2C154.501 23.2 155.365 23.336 156.149 23.608C156.949 23.864 157.645 24.248 158.237 24.76C158.829 25.256 159.301 25.88 159.653 26.632C160.005 27.368 160.213 28.224 160.277 29.2C160.293 29.488 160.301 29.776 160.301 30.064C160.317 30.336 160.325 30.584 160.325 30.808C160.341 30.952 160.349 31.088 160.349 31.216C160.365 31.344 160.373 31.456 160.373 31.552L159.653 31.576ZM153.653 25.12C153.141 25.12 152.661 25.184 152.213 25.312C151.781 25.44 151.389 25.64 151.037 25.912C150.685 26.168 150.381 26.504 150.125 26.92C149.885 27.32 149.709 27.808 149.597 28.384H157.493C157.381 27.808 157.205 27.328 156.965 26.944C156.741 26.544 156.453 26.216 156.101 25.96C155.749 25.704 155.349 25.52 154.901 25.408C154.469 25.28 154.053 25.216 153.653 25.216V25.12Z" fill="#1A1A1A"/>
</svg>